<svg width="98" height="86" xmlns="http://www.w3.org/2000/svg"><path d="M22.549 1L1 29.518v33.405L41.286 77.8l.007-16.491 7.84 19.407L60.61 85 97 60.915l-.09-28.52-16.15-14.993L33.133 1.021l-2.165-.01v16.293L24.378 1h-1.83zm28.46 45.429L34.2 4.215 79.4 19.71 60.073 49.632l-9.064-3.203zM4.2 29.469L23.176 4.214 38.2 41.593l-34-12.125zm36.95 25.088l.008-11.74-7.758-19.37h.003V8.637L48.95 48.18 49 74.148l-7.85-19.591zm20.65-3.355l19.485-30.106 13.232 12.21.083 26.083L61.8 80.98V51.202zM3.4 61.1V31.947l35.2 12.538-.018 29.663L3.4 61.1zm48.45 17.834L51.8 49.23l7.6 2.711v29.844l-7.55-2.851z" fill="#FFF" stroke="#FFF" stroke-width="1.5" fill-rule="evenodd"/></svg>